<?xml version="1.0" standalone="no"?>
<!DOCTYPE svg PUBLIC "-//W3C//DTD SVG 20010904//EN"
 "http://www.w3.org/TR/2001/REC-SVG-20010904/DTD/svg10.dtd">
<svg version="1.0" xmlns="http://www.w3.org/2000/svg"
 width="151.000000pt" height="151.000000pt" viewBox="0 0 151.000000 151.000000"
 preserveAspectRatio="xMidYMid meet">
<metadata>
Created by potrace 1.14, written by Peter Selinger 2001-2017
</metadata>
<g transform="translate(0.000000,151.000000) scale(0.100000,-0.100000)"
fill="#000000" stroke="none">
<path d="M510 1383 c0 -30 7 -56 18 -70 17 -22 214 -143 232 -143 6 0 28 11
50 25 22 14 41 25 44 25 14 0 121 73 134 92 19 26 28 103 13 112 -6 4 -62 -20
-125 -53 l-116 -60 -62 31 c-35 17 -75 40 -90 51 -16 10 -28 15 -28 12 0 -4
-11 0 -25 9 -38 25 -45 20 -45 -31z"/>
<path d="M582 989 c-35 -7 -82 -44 -82 -65 0 -7 -4 -14 -10 -16 -5 -1 -10 -23
-12 -48 -3 -51 -9 -50 127 -35 184 19 277 -2 312 -70 6 -11 11 -50 12 -87 l2
-68 -128 -1 c-70 0 -137 -2 -147 -4 -11 -2 -36 -5 -55 -7 -20 -1 -47 -8 -61
-15 -14 -7 -30 -13 -36 -13 -26 0 -103 -82 -121 -128 -27 -72 -23 -183 10
-248 53 -106 140 -146 320 -150 252 -5 370 64 395 230 12 84 6 487 -8 532 -12
36 -41 85 -65 109 -32 33 -110 67 -185 81 -50 9 -229 11 -268 3z m346 -601 c4
-91 -7 -126 -50 -161 -34 -27 -43 -29 -130 -32 -51 -1 -104 3 -118 8 -64 27
-89 79 -76 153 14 74 82 100 264 99 l107 -1 3 -66z"/>
</g>
</svg>
